<svg xmlns="http://www.w3.org/2000/svg" version="1.1" xmlns:xlink="http://www.w3.org/1999/xlink" xmlns:svgjs="http://svgjs.com/svgjs" width="1440" height="560" preserveAspectRatio="none" viewBox="0 0 1440 560"><g mask="url(&quot;#SvgjsMask1038&quot;)" fill="none"><path d="M 0,263 C 57.6,215.2 172.8,34.2 288,24 C 403.2,13.8 460.8,190.2 576,212 C 691.2,233.8 748.8,140.6 864,133 C 979.2,125.4 1036.8,200.2 1152,174 C 1267.2,147.8 1382.4,36.4 1440,2L1440 560L0 560z" fill="rgba(255, 116, 47, 0.72)"></path><path d="M 0,456 C 48,443.4 144,392.2 240,393 C 336,393.8 384,464.6 480,460 C 576,455.4 624,357 720,370 C 816,383 864,517.8 960,525 C 1056,532.2 1104,423 1200,406 C 1296,389 1392,433.2 1440,440L1440 560L0 560z" fill="rgba(255, 116, 47, 1)"></path></g><defs><mask id="SvgjsMask1038"><rect width="1440" height="560" fill="#ffffff"></rect></mask></defs></svg>