<svg xmlns="http://www.w3.org/2000/svg" version="1.1" xmlns:xlink="http://www.w3.org/1999/xlink" xmlns:svgjs="http://svgjs.com/svgjs" width="1440" height="560" preserveAspectRatio="none" viewBox="0 0 1440 560"><g mask="url(&quot;#SvgjsMask1223&quot;)" fill="none"><rect width="1440" height="560" x="0" y="0" fill="url(#SvgjsLinearGradient1224)"></rect><path d="M1440 0L1322.03 0L1440 88.71z" fill="rgba(255, 255, 255, .1)"></path><path d="M1322.03 0L1440 88.71L1440 146.72L832.23 0z" fill="rgba(255, 255, 255, .075)"></path><path d="M832.23 0L1440 146.72L1440 296.13L627.0600000000001 0z" fill="rgba(255, 255, 255, .05)"></path><path d="M627.0600000000001 0L1440 296.13L1440 473.2L528.2900000000001 0z" fill="rgba(255, 255, 255, .025)"></path><path d="M0 560L433.11 560L0 478.84000000000003z" fill="rgba(0, 0, 0, .1)"></path><path d="M0 478.84000000000003L433.11 560L676.55 560L0 261.23z" fill="rgba(0, 0, 0, .075)"></path><path d="M0 261.23L676.55 560L954.66 560L0 257.97z" fill="rgba(0, 0, 0, .05)"></path><path d="M0 257.97L954.66 560L1039.31 560L0 144.43z" fill="rgba(0, 0, 0, .025)"></path></g><defs><mask id="SvgjsMask1223"><rect width="1440" height="560" fill="#ffffff"></rect></mask><linearGradient x1="15.28%" y1="-39.29%" x2="84.72%" y2="139.29%" gradientUnits="userSpaceOnUse" id="SvgjsLinearGradient1224"><stop stop-color="rgba(177, 69, 16, 1)" offset="0"></stop><stop stop-color="rgba(255, 116, 47, 1)" offset="1"></stop></linearGradient></defs></svg>