<svg xmlns="http://www.w3.org/2000/svg" version="1.1" xmlns:xlink="http://www.w3.org/1999/xlink" xmlns:svgjs="http://svgjs.com/svgjs" width="1440" height="560" preserveAspectRatio="none" viewBox="0 0 1440 560"><g mask="url(&quot;#SvgjsMask1608&quot;)" fill="none"><g transform="translate(0, 0)" stroke-linecap="round" stroke="url(#SvgjsLinearGradient1609)"><path d="M90 67.06 L90 492.94" stroke-width="21"></path><path d="M118 175.38 L118 384.62" stroke-width="21"></path><path d="M146 174.9 L146 385.1" stroke-width="21"></path><path d="M174 95.84 L174 464.16" stroke-width="21"></path><path d="M202 134.26 L202 425.74" stroke-width="21"></path><path d="M230 126.74 L230 433.26" stroke-width="21"></path><path d="M258 242.88 L258 317.12" stroke-width="21"></path><path d="M286 160.49 L286 399.51" stroke-width="21"></path><path d="M314 127.61 L314 432.39" stroke-width="21"></path><path d="M342 180.5 L342 379.5" stroke-width="21"></path><path d="M370 223.44 L370 336.56" stroke-width="21"></path><path d="M398 235.13 L398 324.87" stroke-width="21"></path><path d="M426 121.27 L426 438.73" stroke-width="21"></path><path d="M454 91.96 L454 468.04" stroke-width="21"></path><path d="M482 243.63 L482 316.37" stroke-width="21"></path><path d="M510 155.86 L510 404.14" stroke-width="21"></path><path d="M538 245.03 L538 314.97" stroke-width="21"></path><path d="M566 166.63 L566 393.38" stroke-width="21"></path><path d="M594 112.21 L594 447.79" stroke-width="21"></path><path d="M622 59.23 L622 500.77" stroke-width="21"></path><path d="M650 221.44 L650 338.56" stroke-width="21"></path><path d="M678 106.48 L678 453.52" stroke-width="21"></path><path d="M706 97.76 L706 462.24" stroke-width="21"></path><path d="M734 169.12 L734 390.88" stroke-width="21"></path><path d="M762 161.28 L762 398.72" stroke-width="21"></path><path d="M790 202.81 L790 357.19" stroke-width="21"></path><path d="M818 166.08 L818 393.92" stroke-width="21"></path><path d="M846 137.59 L846 422.4" stroke-width="21"></path><path d="M874 240.13 L874 319.88" stroke-width="21"></path><path d="M902 82.44 L902 477.56" stroke-width="21"></path><path d="M930 103.93 L930 456.07" stroke-width="21"></path><path d="M958 202.5 L958 357.5" stroke-width="21"></path><path d="M986 57.4 L986 502.61" stroke-width="21"></path><path d="M1014 56.94 L1014 503.06" stroke-width="21"></path><path d="M1042 219.49 L1042 340.51" stroke-width="21"></path><path d="M1070 45.66 L1070 514.34" stroke-width="21"></path><path d="M1098 153.74 L1098 406.26" stroke-width="21"></path><path d="M1126 90.5 L1126 469.5" stroke-width="21"></path><path d="M1154 94.43 L1154 465.57" stroke-width="21"></path><path d="M1182 246.03 L1182 313.97" stroke-width="21"></path><path d="M1210 219.38 L1210 340.63" stroke-width="21"></path><path d="M1238 54.32 L1238 505.68" stroke-width="21"></path><path d="M1266 242.9 L1266 317.11" stroke-width="21"></path><path d="M1294 217.63 L1294 342.38" stroke-width="21"></path><path d="M1322 246.97 L1322 313.03" stroke-width="21"></path><path d="M1350 223.31 L1350 336.69" stroke-width="21"></path></g></g><defs><mask id="SvgjsMask1608"><rect width="1440" height="560" fill="#ffffff"></rect></mask><linearGradient x1="72" y1="280" x2="1368" y2="280" gradientUnits="userSpaceOnUse" id="SvgjsLinearGradient1609"><stop stop-color="rgba(255, 193, 0, 1)" offset="0"></stop><stop stop-color="rgba(221, 18, 0, 1)" offset="1"></stop></linearGradient></defs></svg>